<svg version="1" xmlns="http://www.w3.org/2000/svg" width="1792" height="1792" viewBox="0 0 1344.000000 1344.000000"><path d="M654 73.1c-9.1.4-23.5 1.5-32 2.3-13.3 1.4-16.4 2.1-21.7 4.6-7.1 3.5-11.5 8.2-15.2 16-4.8 10.3-4.3 13.4 11.7 72.5 28.8 106.4 169.5 632.4 171.9 642.7 1.4 6 3 10.8 3.7 10.8 1.8 0 24.8-16.9 34.7-25.5 22.8-19.9 52.8-55.6 79.8-95 15.8-23 25.3-31.5 46.4-41.5 20.3-9.7 16.4-8.6 189.7-55 80.1-21.5 124.9-34 127.6-35.5 5.2-3.1 11.1-9.6 13.5-15 3.6-8.2 3.5-14.5-.5-30.3-33.4-131.7-111.3-248.6-219.8-330.3-98.4-74-213-115.2-336.3-120.9-24-1.1-28.9-1.1-53.5.1zm557.8 370.2c7.3 16.3 15.8 38.5 14.9 39.3-1.2 1.2-27.1 8.4-27.8 7.7-.3-.5-1.7-4-2.9-7.8-3.5-10.8-10.8-29.2-15.1-37.6l-3.8-7.6 12.7-3.5c7-2 13.4-3.7 14.3-3.7 1.2-.1 3.4 3.8 7.7 13.2zm-45.4 11c8 19.3 14.9 38.9 13.9 39.7-1.4 1.3-27.1 7.2-28.2 6.5-.6-.3-1.1-1.3-1.1-2.1 0-2.9-10.8-34-14.9-42.7-2.7-6-3.6-8.9-2.8-9.2 2.6-.9 24.3-6.3 25.7-6.4 1-.1 3.4 4.5 7.4 14.2zm-16.8 84.5c3.1 11.7 5.4 21.5 5.1 21.8-.3.3-7.6 2.3-16.3 4.4-20.9 5.1-150.7 39.9-165.4 44.4-6.3 1.9-11.5 3.4-11.6 3.3-.2-.2-12.4-45.7-12.4-46.2 0-.2 2.4-.6 5.3-1 11.8-1.5 30.5-6.2 96.4-23.9 38.8-10.4 74.2-20.5 80.5-22.9 9.7-3.7 11.4-4.1 12-2.8.4.9 3.3 11.2 6.4 22.9zM495 102.6c-1.4.3-5.9 1.6-10 3.1-136.1 47.4-248.8 140.1-321.9 264.8-4.5 7.7-13.1 23.9-19.1 36-34.6 69.8-54 139.7-61.2 220.5-1.5 17.8-1.6 72.7 0 91 4.7 54.7 15.4 105.1 32.6 154.5 7.3 20.8 9.7 25.5 15.7 30.9 9.2 8.3 23.5 10.5 34.9 5.4 10.3-4.7 239.5-114 250.2-119.4 5.8-2.9 10.9-5.8 11.2-6.3.9-1.4-12.5-49.8-17.6-63.6-3-8-4.1-12.2-3.4-12.6 2.4-1.4 51.8-14 52.4-13.4.3.3 1.6 6.7 2.9 14.3 2.3 13.7 11.8 51.9 13.3 53.6 1 1 51.4-23.2 79.5-38 9.9-5.3 20.9-11.7 24.5-14.3l6.6-4.8 20.8 8.8c11.5 4.9 21 9 21.3 9.3.2.2-.4 3.3-1.5 6.8s-3.7 13.1-5.7 21.3c-4.3 17.6-13.2 45-20.5 63.1-4.9 12.1-16.8 37.4-17.6 37.4-.8 0-44.9-12.2-45.6-12.6-.4-.3 1.4-3.9 3.9-8.2 6-10.1 13.5-25.8 18.8-39.6 4.3-11.5 7.1-20.4 6.4-21-.2-.2-18.1 8.4-39.7 19-33 16.2-39.3 19.6-38.8 21.1.3 1 1.6 6.1 3 11.3 11.1 43.2 17.2 65.1 18.8 68.7 3.2 6.9 9.2 12.9 16.8 16.7 14.5 7.2 25.7 7.3 50 .2 37.7-10.9 104.4-35.4 136.2-49.9 8.4-3.9 10.8-6.8 10.8-13.2 0-2-21-81.8-46.6-177.3-137.1-511.6-145.6-542.8-148.2-547.5-3.2-5.9-8-10.2-14.7-13.3-5-2.3-13.8-3.6-18.5-2.8zM1171.5 639.5c-31.3 8.5-57 15.5-57.1 15.5 0 0 .5 3.3 1.2 7.4 3.9 22.3 4.9 36.2 4.9 67.6 0 32.8-1 45.4-5.6 72-15.6 90.4-62.5 175.5-132.6 240.6-73.9 68.6-170 134-299.1 203.3-14.7 7.9-17.6 9.9-19 12.7-2.1 4.5-.8 9.9 3.1 12.8 2.7 2 3.9 2.1 24.5 1.9 108.1-1.2 217.1-33.6 310.2-92.1 137.2-86.2 235.1-227.6 267.9-386.5 7.8-38 11.1-66.5 11.8-104.2.5-24.7.4-28.8-1.2-34-3.6-12.6-11.8-22.1-24.1-28.2-7.2-3.5-8.4-3.8-17.8-4l-10.1-.3-57 15.5z"/><path d="M1040.5 674.6c-11 3-29 7.9-40.1 10.9-41.6 11.3-59.1 21.7-70.3 42-25 45.3-70.2 94-125.6 135.5-17.5 13.1-24.4 17.5-41.3 25.9-39.8 19.9-101.1 42.5-162.7 60.1-25.9 7.4-38.5 10.2-52.5 12-24.1 2.9-45.1-.9-59.7-10.8-6.8-4.7-9.6-7.6-15.2-15.6-6-8.7-8.8-16.9-20.6-61.1-5.9-22-11.1-40.4-11.5-40.9-1.2-1.2-12.2 3.9-138.5 64.5-78.4 37.6-117.3 56.8-120 59.1-6.3 5.5-9.8 12.8-10.3 21.8-.2 4.1.1 9.4.7 11.7 2 7.2 23.7 38.8 43 62.3 68.7 84 158 147.6 259.6 185 32 11.8 73.4 23 85 23 8.7 0 8 .3 61-28 91.4-48.8 148-81.8 202.5-118.1 59.2-39.4 93.6-67.4 127.4-103.9 29.9-32.1 48.1-54.6 66.1-81.5 28.1-42.3 42.8-78.3 49.7-122 2-12.4 2.2-17.9 2.2-47.5 0-19.3-.5-38.6-1.2-45.5-4.7-46-4.5-44.5-6.1-44.4-.9 0-10.6 2.5-21.6 5.5z"/></svg>