<svg version="1" xmlns="http://www.w3.org/2000/svg" width="1706.667" height="1706.667" viewBox="0 0 1280.000000 1280.000000"><path d="M641.7 40.6c-.1.1-7.8.5-17.2.8-9.3.4-18.8.8-21 1.1-6.1.6-15.4 1.5-21.5 2.1-15.1 1.3-26.8 10.8-30.4 24.5-1.9 7.5-1.3 10.9 5.5 36.6 3.4 12.5 6.2 23.4 6.4 24.2.2.9 2.9 10.8 6 22.1s5.8 21.4 6 22.5c.2 1.1.4 2 .5 2 .1 0 .3.7.5 1.5.7 3.4 6.8 26 8.7 32.4 1.1 3.8 2.1 7.6 2.3 8.5.2.9 1.5 6 3 11.4 1.4 5.3 2.8 10.5 3 11.5.3.9 1.5 5.7 2.9 10.7 4 14.9 6.3 23.4 9.6 36 1.7 6.6 4.2 15.8 5.5 20.5 2.4 8.8 7.4 27.4 8 30 .2.8 8.3 31 18 67s17.8 66.2 18 67c.2.8 1.2 4.9 2.3 9 1.2 4.1 3 11.1 4.2 15.5 1.2 4.4 3.9 14.7 6.2 23 2.2 8.2 4.1 15.4 4.3 16 .1.5.7 3 1.4 5.5s1.4 5.2 1.6 6c.3 1.6 4 15.1 7.6 28 1.2 4.1 2.2 8.2 2.4 9 .2.8 3.7 14.1 7.8 29.5 4.2 15.4 8.7 32.5 10.2 38 1.4 5.5 4 14.9 5.6 21 2.9 10.5 5.5 20.3 6.3 23.5.2.8 1.1 4.2 2 7.5.9 3.3 1.8 6.7 2 7.5.2.8 2.3 8.5 4.6 17s4.4 16.2 4.6 17c.2.8 2.6 10.3 5.4 21 2.7 10.7 5 20.3 5 21.2 0 1 .4 1.8.9 1.8 1 0 22-14.8 28.6-20.3 21.8-18 47.9-47.3 74.1-83.2 4.9-6.7 9.4-13.2 15.6-22.3 14.1-20.9 28.5-31.6 57.3-42.7 15.3-5.9 17.5-6.5 107-30.5 18.7-5.1 36.5-9.8 39.5-10.6 3-.9 9.8-2.7 15-4.1 5.2-1.4 11.8-3.1 14.5-3.8 2.8-.8 10.2-2.7 16.5-4.5 6.3-1.7 12.2-3.2 13-3.4.8-.2 8.5-2.3 17-4.6s16.2-4.4 17-4.5c.8-.2 8.3-2.2 16.5-4.5 8.3-2.2 16.6-4.5 18.5-5 23.8-5.8 28.9-7.9 35.1-14.1 7.9-7.9 10.8-18.9 8.2-30.9-.8-3.6-1.6-7.5-1.9-8.7-1.1-5.4-11.7-40-15.7-51.4-4.6-13-10.4-27.9-13.9-35.9-1.1-2.5-2.7-6.1-3.6-8-3.8-8.7-19.3-40.1-22.7-46-2.1-3.6-4.9-8.5-6.3-11-11.7-20.9-33.2-52.3-50.6-74-18-22.5-53.1-59.2-71.6-75.1-4.1-3.5-7.7-6.6-8-7-.3-.3-5.4-4.5-11.5-9.3-6-4.8-11.8-9.4-12.9-10.3-9.6-7.7-42.8-30.2-54.8-37.2-1.8-1-7.3-4.2-12.3-7.1-43-25.1-98-47.4-148.8-60.4-13.4-3.5-43.6-9.8-52.7-11.2-2.5-.4-5.4-.8-6.5-.9-9.9-1.5-26.4-3.5-32.5-4-4.1-.3-8.9-.8-10.6-1-5.1-.7-54.1-2.4-54.7-1.9zm537.8 369.1c5.9 13 15 36.2 15.7 39.7.3 1.9-.3 2.1-14.2 6.1-.8.3-4.4 1.3-7.9 2.3l-6.4 1.9-3.9-11.6c-3.6-10.7-11.1-29.1-15.7-38.6-2.1-4.3-1.9-5.5.7-5.5.9 0 6.9-1.6 13.2-3.5 6.3-1.8 11.8-3.4 12.1-3.4.4-.1 3.3 5.6 6.4 12.6zm-43 16.8c9.6 23.6 13.5 35.5 12.1 36.1-3.9 1.5-28.1 7.2-28.7 6.8-.5-.3-1.1-2-1.5-3.8-.3-1.9-2.6-9.2-5-16.3-2.5-7-4.6-13.3-4.8-13.8-.6-1.9-1.9-5.1-5.3-12.8-1.9-4.3-3.3-8-3.1-8.2.4-.4 16.4-4.5 19.8-5 1.4-.3 3.9-.8 5.5-1.3 1.7-.5 3.1-.9 3.2-.8.1.1 3.6 8.7 7.8 19.1zm-24.4 58.6c2.3 8.2 5.2 18.7 5.5 20.4.2 1.1 1.7 6.9 3.3 12.8 2.1 7.7 2.6 10.9 1.8 11.1-.7.2-10.4 2.7-21.7 5.5-11.3 2.8-21.2 5.3-22 5.5-.9.2-10.1 2.7-20.5 5.5-10.5 2.7-21.5 5.7-24.5 6.5-3 .8-12.4 3.3-20.8 5.5-8.4 2.3-21.9 5.9-30 8.2-8.1 2.2-15.4 4.2-16.3 4.4-4.1.8-24.5 6.7-30.7 8.8l-6.9 2.3-1.7-6c-1.6-5.7-3.4-12.3-8.5-31.9-1.1-4.3-2.3-8.2-2.6-8.7-.4-.6-.3-1 .2-1.1 9.8-1 29.8-5.3 52.6-11.5 25.9-7 26.8-7.2 29.5-7.8 2.1-.5 22.3-5.9 41.3-11.2 6.9-1.9 13.4-3.7 14.5-3.9 19-4.6 48.5-13.7 53.4-16.6 2.1-1.2 3.3-.6 4.1 2.2zM458.5 72.2c-72.9 25.4-131 57.4-188 103.7-7.1 5.8-14.2 11.7-15.7 13.1-1.4 1.4-5.9 5.4-9.9 9-8.8 7.9-26.5 25.3-33.9 33.5-8.8 9.7-18.5 20.7-21.6 24.5-1.6 1.9-3.1 3.7-3.4 4-5.5 5.1-41.8 56.1-45.2 63.4-.6 1.5-1.5 2.6-2 2.6-.4 0-.8.5-.8 1.1 0 .6-1.3 3.1-3 5.6-1.6 2.4-3 4.5-3 4.7 0 .2-2.3 4.3-5.1 9.2C119.7 359 97 405.2 97 407.4c0 .3-1.1 2.9-2.4 5.8-6.2 13.7-14.2 37.3-25.1 73.9-1.3 4.5-5.9 24.6-6.9 30.1-.2 1.5-.7 3.1-.9 3.5-.3.5-.8 3.3-1.2 6.3-.4 3-.8 5.7-1 6-.2.3-.6 2.5-1 5s-.8 4.7-1 5c-.2.3-.6 3-.9 6-.3 3-.8 6.4-1 7.5-.2 1.1-.7 4.9-1.1 8.5-.4 3.6-.8 6.7-1 7-.1.3-.6 4.3-1 9s-.8 9.8-1 11.5c-2.3 18.5-2.3 76.5 0 96.5.2 1.9.6 6.6 1 10.5.3 3.8 1 10.4 1.6 14.5.9 7.1 1.2 8.8 2.4 17.7.3 2.1.8 4.7 1 5.9.3 1.2.7 3.9 1 6 .3 2.1 1.2 6.8 2 10.4.7 3.6 1.6 8.1 1.9 10 2 13.2 14.4 56.9 22.5 79.5 7.1 19.6 7.9 21.3 13.7 26.9 8.9 8.8 23.2 11.3 34.9 6.1 4.1-1.8 21.3-10 36-17 15.2-7.3 31.5-15 43-20.5 5-2.3 14.2-6.7 20.5-9.7 6.3-3.1 17.1-8.2 24-11.5 16.7-7.9 21.1-10 37.5-17.8 32.1-15.4 38.3-18.4 44.5-21.2 27.1-12.6 56.9-27.9 56.5-29-.2-.7-2.9-10.5-5.9-21.8-5.5-20.5-9.4-33.2-14.1-45.7-1.4-3.7-2.2-7-1.8-7.4.7-.6 46.1-13.1 52.6-14.4 1.2-.3 1.7.3 1.8 1.8.2 5.4 4.4 27.7 7.1 37.7 1.1 4.1 2.9 10.9 4 15 4.5 17.2 3.8 15.6 6.6 14 .9-.5 19-9.5 40.2-19.9 21.2-10.5 41.7-20.8 45.5-23 3.9-2.2 7.7-4.4 8.5-4.8 2.8-1.4 9.7-6.2 11-7.8 1.6-1.9 2.7-1.6 13 2.8 1.9.8 10.1 4.3 18.1 7.6l14.5 6.2-3.2 11.2c-1.8 6.2-3.4 12.5-3.7 14.2-.6 4-7.4 28.2-9 32-.6 1.6-1.2 3.2-1.2 3.5-.3 2.5-9.8 27.9-15 40-5.8 13.6-12.8 27.2-14.1 27.7-1.1.4-19.1-4-27.4-6.7-1.4-.4-6.2-1.8-10.7-3-4.6-1.3-8.3-2.6-8.3-3.1 0-.4 1.1-2.4 2.4-4.4 6.3-9.3 17.9-34.3 23.6-51 5.1-14.9 8.7-15.5-34.1 5.7-21 10.3-38.5 18.8-39 18.8-1.5 0-1.1 2.2 4.7 24.7 14.3 55.5 15.5 59.5 21.3 65.8 9.8 10.9 27 16.2 43.1 13.3 8.7-1.5 27.8-7.3 56-16.9 34.3-11.7 38.7-13.3 66.7-24.5 26.8-10.6 37.2-15.5 39.6-18.2 3-3.4 3.1-8.8.4-18.7-1.4-5-3.7-13.3-5.1-18.5-1.4-5.2-5-19-8.1-30.5-3.1-11.6-5.9-21.9-6.1-22.9-.2-1-.8-3.3-1.3-5-1.1-3.3-7.7-28.1-12.5-46.6-2.8-10.8-10.8-40.3-11.6-42.7-.6-1.8-1.3-4-1.5-5-.1-1-6.7-25.7-14.5-54.8-7.8-29.2-14.8-55.3-15.5-58-.8-2.8-2.3-8.6-3.5-13-1.2-4.4-2.3-8.7-2.5-9.5-.2-.8-1.6-5.8-3-11-1.5-5.2-3.7-13.6-5-18.5-1.3-5-4.6-17.6-7.5-28-5.4-20.3-27.9-104-28.6-106.5-.2-.8-1.5-5.8-2.9-11s-3.7-13.6-5-18.5c-1.3-5-3-11.5-3.8-14.5-1.4-5.1-20.5-76.1-26.3-98-1.4-5.2-3.7-13.6-5-18.5-1.4-5-2.7-9.9-2.9-11-.3-1.1-2.4-9.2-4.9-18-2.4-8.8-6.3-23.2-8.6-32s-5.1-17.8-6.1-20c-2.7-5.8-8.1-10.9-15.1-14.5-5.2-2.5-7.2-3-13.2-2.9-3.9 0-8.4.5-10.1 1.1zM1189.5 594.6c-4.9 1.4-9.9 2.7-11 2.9-1.1.3-6.9 1.9-13 3.5-6 1.7-11.9 3.3-13 3.5-5.7 1.3-68.8 18.5-69.1 18.8-.2.2.5 6.4 1.5 13.8 4.3 29.7 5.5 57.6 3.8 86.9-.7 11-1 14-2.3 24-.3 2.5-.8 6.1-1 8-.6 5.2-1.4 10.2-1.9 13-.2 1.4-.7 3.6-.9 5-3.9 22.6-13.9 57.6-22.1 77-1.4 3.6-2.8 6.9-2.9 7.5-1.7 6.3-22.7 47.7-28.6 56.5-.9 1.4-4.7 7.2-8.5 12.9-11.3 17.5-30.4 42.2-42.5 55.1-18.1 19.3-37.6 38-53.4 51.1-1.6 1.3-3.4 2.9-4 3.4-.6.6-3.6 3-6.6 5.5-3 2.5-5.7 4.7-6 5-.3.3-3.9 3.3-8 6.5-4.1 3.3-7.7 6.2-8 6.5-.6.6-5.1 4-19 14.6-37.2 28.2-80.7 57.3-128.5 85.9-12.6 7.5-25.2 15-27.8 16.6-2.7 1.6-5 2.9-5.2 2.9-.3 0-4.2 2.2-8.7 4.9-4.6 2.6-10.8 6.1-13.8 7.8-3 1.6-9.5 5.2-14.5 8-4.9 2.7-12.6 6.9-17 9.3-20.6 11-22.7 12.3-24.6 15.3-3.1 5.2-.4 12.8 5.1 14.2 2.4.7 31.1.7 42 0 14.7-.8 25.7-1.6 28-2 1.4-.2 5.4-.7 9-1 3.6-.3 7.2-.8 8-1 .8-.2 3.8-.7 6.5-1 2.8-.3 6.1-.7 7.5-1 1.4-.2 4.5-.7 7-1 2.5-.4 5.4-.9 6.5-1.1 1.1-.3 3.6-.7 5.5-1 1.9-.3 5.1-.9 7-1.4 1.9-.5 5.1-1.1 7-1.4 10.8-1.6 44.4-10.7 66-17.7 48-15.8 91.4-36.4 134.5-63.8 8.3-5.2 15.5-9.9 16-10.3.6-.4 6.4-4.7 13-9.4 26.8-19.2 46.6-36.3 72.5-62.3 21.7-21.8 26.9-27.5 42.7-47.1 11.3-14 28-36.7 30.3-41 .7-1.4 1.6-2.7 2-3 1.4-1.1 19.4-30.6 26.3-43.3 21.8-39.7 37.9-78.5 51.1-122.7 3.9-13 11.1-43.3 13.1-54.5.2-1.7.7-4.1 1-5.5.2-1.3.7-4 1-6 .3-2 .7-4.7 1-6 .3-1.3.7-4.2 1-6.5.4-2.2.8-5.1 1-6.5.2-1.4.6-5 1-8 .3-3 .8-6.6 1-8 .2-1.4.7-6.3 1.1-11 .3-4.7.8-9.4 1-10.5.3-1.1.7-14 1-28.6.5-25.3.4-26.9-1.6-33-8.4-25.1-31.4-36.6-58.5-29.3z"/><path d="M1014.5 641.5c-8.8 2.3-23.9 6.4-33.5 9-9.6 2.6-18.2 4.9-19 5.1-22.3 5.4-45.3 16.8-54.8 27.3-1.8 2-5.2 6.7-7.4 10.6-13.6 23.4-27.1 42.3-45.3 63.5-7.4 8.5-39.1 39.6-49.6 48.6-10 8.6-28.5 23.3-36 28.7-1.3.9-5.1 3.7-8.4 6.1-10.7 7.8-27.1 16.5-53.8 28.5-3.8 1.7-7 3.1-7.3 3.1-.2 0-2.3.9-4.7 1.9-2.3 1-7.8 3.3-12.2 5-4.4 1.8-8.9 3.6-10 4-3.9 1.7-18 6.9-20.5 7.6-1.4.4-3.8 1.3-5.5 2-5.8 2.5-58.5 19.7-67.5 22-.8.2-8.7 2.4-17.5 4.8-15.2 4.2-20.7 5.7-23 6.2-51.9 11.4-84.5 2.3-101.3-28.5-3.5-6.4-9.9-26.5-13.7-42.7-.2-1-1.5-5.9-2.9-10.8-1.3-5-3.6-13.5-5.1-19-4.3-16-6.4-23.8-6.7-24.1-.3-.2-8.7 3.3-20.8 8.8-2.5 1.1-11.5 5.4-20 9.6-8.5 4.1-19.1 9.1-23.5 11.2-4.4 2.1-15.2 7.2-24 11.5-28.7 13.9-42.9 20.7-50 24-3.8 1.8-14.6 7-24 11.5-18.3 8.9-36.3 17.5-51.5 24.7-44.3 21.1-47.1 22.9-51.8 33.1-3.2 7.1-3.9 16.9-1.5 23.9.9 2.6 5.2 10.1 9.7 16.7 8.1 12.2 29.9 41.7 35.4 47.8 1.6 1.8 6.3 7.1 10.3 11.8 15.2 17.6 34.4 37.2 49.9 50.9 5.2 4.6 11.1 9.8 13 11.5 1.9 1.8 6.9 5.8 11 9.1s7.7 6.2 8 6.5c.3.3 5.7 4.4 12 9.1 16.5 12.3 41.8 29 57.5 38 3.3 1.8 7.8 4.4 10 5.6 9.2 5.3 43.9 22.2 54.5 26.7 6.3 2.7 12.9 5.4 14.5 6.1 4.5 2 25.1 9.5 26 9.5.4 0 2.1.6 3.8 1.4 1.8.8 4.1 1.6 5.2 1.9 1.1.3 8.1 2.4 15.5 4.7 25.9 7.9 40.8 11.3 50 11.4 7.7.1 9.1-.2 14.6-3.1 6.6-3.3 23.4-12.1 34.9-18.3 3.9-2.1 10.4-5.5 14.5-7.8 17.1-9.1 21.7-11.6 26.5-14.2 2.8-1.5 8.6-4.6 13-7 4.4-2.3 9.4-5 11-6 1.7-1 5.5-3.1 8.5-4.7 87.1-47.1 176.1-105.2 226-147.7 15.4-13.1 45.6-43.6 61.5-62.1 2.8-3.2 5.9-6.7 7-7.9 7.3-7.6 30.6-38.3 40-52.6 17.4-26.5 27.2-45.3 35.7-68.2 5.8-15.8 11.6-38.5 13.4-52.3.3-2.8.8-5.9 1-7 2.4-12.2 2.4-76.1 0-88-.2-1.1-.7-6.3-1-11.5-.4-5.2-.9-10.2-1.1-11-.2-.8-.6-4.7-.9-8.5-.6-7.1-1.3-11.6-1.8-12-.2-.1-7.5 1.7-16.3 4z"/></svg>